<?xml version="1.0" encoding="UTF-8"?><svg id="Layer_2" xmlns="http://www.w3.org/2000/svg" xmlns:xlink="http://www.w3.org/1999/xlink" viewBox="0 0 1216.640198882434561 120.7139892578125"><defs><style>.cls-1{fill:url(#linear-gradient-2);}.cls-2{fill:#fff;}.cls-3{fill:none;}.cls-4{fill:url(#linear-gradient-3);}.cls-5{clip-path:url(#clippath-1);}.cls-6{clip-path:url(#clippath-2);}.cls-7{fill:url(#linear-gradient);}.cls-8{clip-path:url(#clippath);}</style><clipPath id="clippath"><polygon class="cls-3" points="57.62701416015625 0 49.86199951171875 23.13299560546875 142.089996337890625 23.13299560546875 149.85400390625 0 57.62701416015625 0"/></clipPath><linearGradient id="linear-gradient" x1="-392.293244818811218" y1="634.046721513303055" x2="-391.293244818809114" y2="634.046721513303055" gradientTransform="translate(68185.418534480020753 -42002.130889574298635) rotate(-90) scale(107.382560729980469 -107.382560729980469)" gradientUnits="userSpaceOnUse"><stop offset="0" stop-color="#ff2b82"/><stop offset="1" stop-color="#5200ff"/></linearGradient><clipPath id="clippath-1"><polygon class="cls-3" points="30.352996826171875 28.73699951171875 22.589019775390625 51.8699951171875 95.222015380859375 51.8699951171875 102.98699951171875 28.73699951171875 30.352996826171875 28.73699951171875"/></clipPath><linearGradient id="linear-gradient-2" x1="-392.293244818809399" y1="634.046720660717256" x2="-391.293244818809399" y2="634.046720660717256" gradientTransform="translate(68148.348466120645753 -42002.130889574298635) rotate(-90) scale(107.382560729980469 -107.382560729980469)" xlink:href="#linear-gradient"/><clipPath id="clippath-2"><polygon class="cls-3" points="20.787994384765625 58.781005859375 0 120.7139892578125 63.170013427734375 58.781005859375 20.787994384765625 58.781005859375"/></clipPath><linearGradient id="linear-gradient-3" x1="-392.293244818808944" y1="634.046719808135094" x2="-391.29324481880974" y2="634.046719808135094" gradientTransform="translate(68117.145371638223878 -42002.130889574298635) rotate(-90) scale(107.382560729980469 -107.382560729980469)" xlink:href="#linear-gradient"/></defs><g id="Layer_1-2"><polygon class="cls-2" points="206.04638671875 49.1605224609375 208.2413330078125 42.7625732421875 260.59735107421875 42.7625732421875 268.02838134765625 20.58258056640625 176.74932861328125 20.58258056640625 150.176361083984375 99.918548583984375 189.09832763671875 99.918548583984375 198.7413330078125 71.23455810546875 250.35235595703125 71.23455810546875 257.76434326171875 49.1605224609375 206.04638671875 49.1605224609375"/><polygon class="cls-2" points="295.7034912109375 71.66058349609375 312.814453125 20.58160400390625 273.25347900390625 20.58160400390625 246.679443359375 99.918609619140625 339.87847900390625 99.918609619140625 349.23345947265625 71.66058349609375 295.7034912109375 71.66058349609375"/><path class="cls-2" d="M405.2132568359375,20.5819091796875l-62.29400634765625,79.335968017578125h39.88104248046875l7.11297607421875-9.489990234375h38.70697021484375l.9930419921875,9.489990234375h44.03900146484375l-12.88104248046875-79.335968017578125h-55.5579833984375ZM407.3782958984375,66.9688720703125l16.49395751953125-22.18096923828125,2.27301025390625,22.18096923828125h-18.7669677734375Z"/><path class="cls-2" d="M562.0648193359375,47.98760986328125l-12.89605712890625-.63995361328125c-12.0439453125-.6400146484375-14.251953125-2.0260009765625-13.7449951171875-4.905029296875.50799560546875-2.87896728515625,3.2919921875-4.15899658203125,12.57000732421875-4.15899658203125,10.343994140625,0,10.57598876953125,3.51898193359375,10.0679931640625,6.39801025390625h45.53399658203125c2.96502685546875-10.77001953125,2.2550048828125-25.48602294921875-43.1719970703125-25.48602294921875h-13.22296142578125c-35.18902587890625,0-50.48101806640625,6.2919921875-56.14404296875,20.26104736328125-.56396484375,1.385986328125-1.2779541015625,3.6259765625-1.55999755859375,5.2249755859375-2.1619873046875,12.26300048828125,2.90704345703125,22.82098388671875,31.82403564453125,24.5260009765625l12.9849853515625.7459716796875c12.77099609375.748046875,14.01300048828125,2.7740478515625,13.468017578125,5.86602783203125-.45098876953125,2.55902099609375-2.916015625,5.6519775390625-13.260986328125,5.6519775390625-11.196044921875,0-10.71905517578125-5.11895751953125-10.11700439453125-8.531005859375h-46.38702392578125c-2.81500244140625,9.916015625-3.865966796875,28.576995849609375,43.47998046875,28.576995849609375h13.6500244140625c43.718994140625,0,56.07501220703125-11.40899658203125,60.4940185546875-25.590972900390625.47796630859375-1.4940185546875.94097900390625-3.52001953125,1.2979736328125-5.54498291015625,2.53900146484375-14.39599609375-6.10601806640625-21.00799560546875-34.865966796875-22.39404296875"/><polygon class="cls-2" points="714.11590576171875 20.58197021484375 705.31280517578125 46.9210205078125 649.223876953125 46.9210205078125 658.02685546875 20.58197021484375 618.46588134765625 20.58197021484375 591.89288330078125 99.91796875 631.45489501953125 99.91796875 640.9158935546875 71.6610107421875 697.00482177734375 71.6610107421875 687.54388427734375 99.91796875 727.10479736328125 99.91796875 753.67681884765625 20.58197021484375 714.11590576171875 20.58197021484375"/><path class="cls-2" d="M865.49981689453125,45.3218994140625c2.425048828125-13.7559814453125-3.635009765625-24.739990234375-31.678955078125-24.739990234375h-75.2840576171875l-26.572998046875,79.335968017578125h39.56201171875l7.22900390625-21.645965576171875h40.6280517578125c32.4158935546875,0,43.052001953125-15.56903076171875,46.116943359375-32.95001220703125M814.76287841796875,54.27886962890625h-27.9390869140625l3.550048828125-10.45098876953125h27.7239990234375c4.6920166015625,0,6.0980224609375,1.70703125,5.5899658203125,4.58599853515625-.5830078125,3.30499267578125-3.06103515625,5.864990234375-8.9249267578125,5.864990234375"/><path class="cls-2" d="M897.81463623046875,20.5819091796875l-62.2940673828125,79.335968017578125h39.881103515625l7.1129150390625-9.489990234375h38.70703125l.9930419921875,9.489990234375h44.0399169921875l-12.8819580078125-79.335968017578125h-55.5579833984375ZM899.97967529296875,66.9688720703125l16.493896484375-22.18096923828125,2.2730712890625,22.18096923828125h-18.7669677734375Z"/><path class="cls-2" d="M1050.91754150390625,19.19610595703125h-13.2230224609375c-35.1900634765625,0-50.4810791015625,6.291015625-56.14404296875,20.26104736328125-.56396484375,1.385986328125-1.2779541015625,3.625-1.5599365234375,5.2249755859375-2.162109375,12.26202392578125,2.9058837890625,22.82000732421875,31.823974609375,24.5260009765625l12.9840087890625.74603271484375c12.77197265625.7469482421875,14.013916015625,2.77294921875,13.468994140625,5.864990234375-.4510498046875,2.5589599609375-2.9169921875,5.6519775390625-13.260986328125,5.6519775390625-11.196044921875,0-10.718994140625-5.1190185546875-10.1180419921875-8.531005859375h-46.386962890625c-2.8140869140625,9.9169921875-3.864990234375,28.5780029296875,43.48095703125,28.5780029296875h13.6490478515625c43.719970703125,0,56.075927734375-11.40899658203125,60.4949951171875-25.59197998046875.4779052734375-1.4930419921875.94091796875-3.51904296875,1.2979736328125-5.54498291015625,2.5379638671875-14.39605712890625-6.1070556640625-21.008056640625-34.865966796875-22.39300537109375l-12.89599609375-.6400146484375c-12.0440673828125-.6409912109375-14.2530517578125-2.02703857421875-13.7449951171875-4.906005859375.5079345703125-2.8790283203125,3.2919921875-4.15802001953125,12.5699462890625-4.15802001953125,10.343994140625,0,10.574951171875,3.51904296875,10.0679931640625,6.39801025390625h45.532958984375c2.966064453125-10.77001953125,2.2550048828125-25.48602294921875-43.1708984375-25.48602294921875"/><path class="cls-2" d="M1172.45794677734375,19.19610595703125h-13.2230224609375c-35.1900634765625,0-50.4810791015625,6.291015625-56.14404296875,20.26104736328125-.56396484375,1.385986328125-1.2779541015625,3.625-1.5599365234375,5.2249755859375-2.162109375,12.26202392578125,2.9058837890625,22.82000732421875,31.823974609375,24.5260009765625l12.9840087890625.74603271484375c12.77099609375.7469482421875,14.013916015625,2.77294921875,13.468994140625,5.864990234375-.4510498046875,2.5589599609375-2.9169921875,5.6519775390625-13.260986328125,5.6519775390625-11.196044921875,0-10.718994140625-5.1190185546875-10.1180419921875-8.531005859375h-46.386962890625c-2.81298828125,9.9169921875-3.864990234375,28.5780029296875,43.48095703125,28.5780029296875h13.6490478515625c43.719970703125,0,56.075927734375-11.40899658203125,60.4949951171875-25.59197998046875.4759521484375-1.4930419921875.94091796875-3.51904296875,1.2979736328125-5.54498291015625,2.5379638671875-14.39605712890625-6.1070556640625-21.008056640625-34.865966796875-22.39300537109375l-12.89599609375-.6400146484375c-12.0440673828125-.6409912109375-14.2530517578125-2.02703857421875-13.7449951171875-4.906005859375.5079345703125-2.8790283203125,3.2919921875-4.15802001953125,12.5699462890625-4.15802001953125,10.343994140625,0,10.574951171875,3.51904296875,10.0679931640625,6.39801025390625h45.532958984375c2.966064453125-10.77001953125,2.2540283203125-25.48602294921875-43.1708984375-25.48602294921875"/><g class="cls-8"><rect class="cls-7" x="49.8619384765625" y=".00006103515625" width="99.992034912109375" height="23.1329345703125"/></g><g class="cls-5"><rect class="cls-1" x="22.5889892578125" y="28.73699951171875" width="80.397979736328125" height="23.133056640625"/></g><g class="cls-6"><rect class="cls-4" x="-.000030517578125" y="58.781005859375" width="63.170013427734375" height="61.933013916015625"/></g></g></svg>
